<?xml version="1.0" encoding="utf-8"?>
<svg version="1.1" id="Layer_1" xmlns="http://www.w3.org/2000/svg" xmlns:xlink="http://www.w3.org/1999/xlink" x="0px" y="0px"
	 width="200" height="200" viewBox="0 0 200 200" style="enable-background:new 0 0 200 200;" xml:space="preserve">
<style type="text/css">
	.st0{fill:url(#SVGID_1_);}
	.st1{fill:url(#SVGID_00000067222778203047500660000009529917234423372444_);}
	.st2{fill:url(#SVGID_00000102528057875156645820000000701370226301498266_);}
</style>
<g id="Layer_1_00000087393494440043057950000014172475635571528362_">
</g>
<g>

		<linearGradient id="SVGID_1_" gradientUnits="userSpaceOnUse" x1="-247.9041" y1="545.4061" x2="-229.5299" y2="527.0471" gradientTransform="matrix(9.8882 0 0 9.88 2453.1196 -5190.7065)">
		<stop  offset="0" style="stop-color:#FFD521"/>
		<stop  offset="5.000000e-02" style="stop-color:#FFD521"/>
		<stop  offset="0.5011" style="stop-color:#F50000"/>
		<stop  offset="0.95" style="stop-color:#B900B4"/>
		<stop  offset="0.9501" style="stop-color:#B900B4"/>
		<stop  offset="1" style="stop-color:#B900B4"/>
	</linearGradient>
	<path class="st0" d="M165.4,46.6c0-6.6-5.4-12-12-12c-6.6,0-12,5.4-12,12c0,6.6,5.4,12,12,12C160,58.6,165.4,53.2,165.4,46.6"/>

		<linearGradient id="SVGID_00000167367038410375541130000009051128200388588704_" gradientUnits="userSpaceOnUse" x1="-209.7917" y1="507.288" x2="-191.4099" y2="488.9062" gradientTransform="matrix(9.8841 0 0 9.8841 2075.4077 -4815.9038)">
		<stop  offset="0" style="stop-color:#FFD521"/>
		<stop  offset="5.000000e-02" style="stop-color:#FFD521"/>
		<stop  offset="0.5011" style="stop-color:#F50000"/>
		<stop  offset="0.95" style="stop-color:#B900B4"/>
		<stop  offset="0.9501" style="stop-color:#B900B4"/>
		<stop  offset="1" style="stop-color:#B900B4"/>
	</linearGradient>
	<path style="fill:url(#SVGID_00000167367038410375541130000009051128200388588704_);" d="M181.4,140.4c-0.4,9.8-2.1,15-3.4,18.6
		c-1.8,4.7-4,8-7.5,11.5c-3.5,3.5-6.8,5.7-11.5,7.5c-3.5,1.4-8.8,3-18.6,3.5c-10.5,0.5-13.7,0.6-40.4,0.6c-26.7,0-29.9-0.1-40.4-0.6
		c-9.8-0.5-15-2.1-18.6-3.5c-4.7-1.8-8-4-11.5-7.5C26,167,23.8,163.6,22,159c-1.4-3.5-3-8.8-3.4-18.6C18.1,129.9,18,126.7,18,100
		c0-26.7,0.1-29.9,0.6-40.4c0.4-9.8,2.1-15,3.4-18.6c1.8-4.7,4-8,7.5-11.5C33,26,36.3,23.9,41,22c3.5-1.4,8.8-3,18.6-3.5
		C70.1,18.1,73.3,18,100,18c26.7,0,29.9,0.1,40.4,0.6c9.8,0.5,15.1,2.1,18.6,3.5c4.7,1.8,8,4,11.5,7.5c3.5,3.5,5.7,6.8,7.5,11.5
		c1.4,3.5,3,8.8,3.4,18.6c0.5,10.5,0.6,13.7,0.6,40.4C182,126.7,181.9,129.9,181.4,140.4L181.4,140.4z M199.4,58.8
		c-0.5-10.7-2.2-17.9-4.7-24.3c-2.5-6.6-5.9-12.2-11.5-17.7c-5.5-5.5-11.1-9-17.7-11.5c-6.4-2.5-13.6-4.2-24.3-4.6
		C130.6,0.1,127.2,0,100,0C72.8,0,69.4,0.1,58.8,0.6C48.1,1.1,40.9,2.8,34.5,5.2c-6.6,2.6-12.1,6-17.7,11.5
		c-5.6,5.6-9,11.1-11.5,17.7c-2.5,6.3-4.2,13.6-4.7,24.3C0.1,69.4,0,72.8,0,100c0,27.1,0.1,30.6,0.6,41.2
		c0.5,10.6,2.2,17.9,4.7,24.3c2.6,6.6,6,12.2,11.5,17.7c5.5,5.5,11.1,9,17.7,11.5c6.4,2.5,13.6,4.2,24.3,4.6
		c10.7,0.5,14.1,0.6,41.2,0.6c27.2,0,30.6-0.1,41.2-0.6s17.9-2.2,24.3-4.6c6.6-2.6,12.2-6,17.7-11.5c5.6-5.5,9-11.1,11.5-17.7
		c2.5-6.4,4.2-13.6,4.7-24.3c0.5-10.7,0.6-14.1,0.6-41.2C200,72.8,199.9,69.4,199.4,58.8L199.4,58.8z"/>

		<linearGradient id="SVGID_00000180334992396444072360000006405603127286966425_" gradientUnits="userSpaceOnUse" x1="-222.8569" y1="520.355" x2="-204.4818" y2="501.9755" gradientTransform="matrix(9.8829 0 0 9.8853 2204.3267 -4945.6743)">
		<stop  offset="0" style="stop-color:#FFD521"/>
		<stop  offset="5.000000e-02" style="stop-color:#FFD521"/>
		<stop  offset="0.5011" style="stop-color:#F50000"/>
		<stop  offset="0.95" style="stop-color:#B900B4"/>
		<stop  offset="0.9501" style="stop-color:#B900B4"/>
		<stop  offset="1" style="stop-color:#B900B4"/>
	</linearGradient>
	<path style="fill:url(#SVGID_00000180334992396444072360000006405603127286966425_);" d="M100,133.3c-18.4,0-33.3-14.9-33.3-33.3
		c0-18.4,14.9-33.4,33.3-33.4c18.4,0,33.4,14.9,33.4,33.4C133.3,118.4,118.4,133.3,100,133.3z M100,48.6c-28.4,0-51.3,23-51.3,51.4
		c0,28.3,23,51.3,51.3,51.3s51.4-23,51.4-51.3C151.3,71.6,128.3,48.6,100,48.6z"/>
</g>
</svg>
