<?xml version="1.0" encoding="UTF-8"?>
<svg xmlns="http://www.w3.org/2000/svg" width="200" height="200" viewBox="0 0 200 200">
  <defs>
    <style>
      .cls-1 {
        fill: #50abf1;
      }

      .cls-2 {
        fill: none;
      }
    </style>
  </defs>
  <g id="Layer_1" data-name="Layer 1"/>
  <g id="Layer_2" data-name="Layer 2">
    <g id="twitter-color">
      <path class="cls-1" d="M195.47,37.02c-3.14,1.39-6.37,2.57-9.67,3.52,3.91-4.42,6.89-9.62,8.71-15.31,.41-1.28-.01-2.67-1.06-3.51-1.05-.83-2.5-.93-3.65-.25-7.01,4.16-14.57,7.15-22.5,8.89-7.99-7.81-18.84-12.25-30.05-12.25-23.67,0-42.93,19.26-42.93,42.93,0,1.86,.12,3.72,.35,5.55-29.38-2.58-56.69-17.02-75.44-40.02-.67-.82-1.7-1.26-2.75-1.18-1.05,.08-2,.68-2.54,1.59-3.8,6.53-5.81,13.99-5.81,21.59,0,10.35,3.69,20.16,10.22,27.83-1.98-.69-3.91-1.55-5.75-2.57-.99-.55-2.19-.54-3.17,.02-.98,.56-1.6,1.6-1.62,2.72,0,.19,0,.38,0,.57,0,15.44,8.31,29.34,21.02,36.92-1.09-.11-2.18-.27-3.27-.47-1.12-.21-2.27,.18-3.02,1.03-.75,.85-1,2.04-.66,3.12,4.7,14.68,16.81,25.48,31.45,28.78-12.14,7.6-26.03,11.59-40.6,11.59-3.04,0-6.1-.18-9.09-.53-1.49-.18-2.91,.7-3.42,2.12-.51,1.41,.03,2.99,1.3,3.8,18.72,12.01,40.38,18.35,62.61,18.35,43.71,0,71.06-20.61,86.3-37.91,19.01-21.56,29.91-50.1,29.91-78.3,0-1.18-.02-2.37-.05-3.55,7.5-5.65,13.95-12.49,19.21-20.35,.8-1.19,.71-2.77-.21-3.87-.92-1.1-2.46-1.46-3.77-.87Z"/>
      <rect class="cls-2" width="200" height="200"/>
    </g>
  </g>
</svg>