<?xml version="1.0" encoding="UTF-8"?>
<svg xmlns="http://www.w3.org/2000/svg" width="200" height="200" viewBox="0 0 200 200">
  <defs>
    <style>
      .cls-1 {
        fill: #69c9d0;
      }

      .cls-2 {
        fill: #ee1d52;
      }

      .cls-3 {
        fill: none;
      }
    </style>
  </defs>
  <g id="Layer_1" data-name="Layer 1"/>
  <g id="Layer_2" data-name="Layer 2">
    <g id="tiktok-color">
      <g>
        <path class="cls-2" d="M18.38,171.15l.66,1.85c-.08-.21-.32-.86-.66-1.85Zm25.96-41.98c1.15-9.95,5.06-15.53,12.44-21.24,10.55-7.74,23.73-3.36,23.73-3.36v-25.96c3.2-.09,6.41,.11,9.58,.59v33.41s-13.17-4.38-23.72,3.36c-7.37,5.71-11.29,11.29-12.44,21.24-.04,5.4,.94,12.47,5.41,18.58-1.11-.59-2.23-1.27-3.38-2.02-9.86-6.91-11.66-17.27-11.61-24.6h0ZM144.49,30.61c-7.26-8.3-10-16.67-10.99-22.56h9.13s-1.82,15.43,11.45,30.6l.18,.2c-3.58-2.35-6.85-5.12-9.77-8.25Zm43.98,23.52v32.74s-11.65-.48-20.27-2.76c-12.04-3.2-19.77-8.11-19.77-8.11,0,0-5.34-3.5-5.78-3.74v67.61c0,3.76-.99,13.17-4,21.01-3.93,10.26-10,16.99-11.12,18.37,0,0-7.38,9.1-20.4,15.23-11.74,5.53-22.04,5.39-25.12,5.53,0,0-17.81,.74-33.84-10.13-3.47-2.4-6.7-5.11-9.67-8.1l.08,.06c16.03,10.87,33.84,10.13,33.84,10.13,3.08-.14,13.39,0,25.12-5.53,13.01-6.13,20.4-15.23,20.4-15.23,1.1-1.38,7.2-8.11,11.12-18.37,3-7.84,4-17.24,4-21.01V64.21c.43,.25,5.77,3.75,5.77,3.75,0,0,7.74,4.91,19.78,8.11,8.62,2.29,20.27,2.76,20.27,2.76v-25.65c3.98,.93,7.38,1.18,9.59,.95h0Z"/>
        <path d="M178.89,53.18v25.65s-11.65-.48-20.27-2.76c-12.04-3.2-19.78-8.11-19.78-8.11,0,0-5.34-3.5-5.77-3.75v67.62c0,3.76-.99,13.17-4,21.01-3.93,10.26-10,16.99-11.12,18.37,0,0-7.38,9.1-20.4,15.23-11.73,5.53-22.04,5.39-25.12,5.53,0,0-17.81,.74-33.84-10.13l-.08-.06c-1.69-1.71-3.29-3.52-4.77-5.41-5.12-6.51-8.25-14.21-9.04-16.4,0,0,0-.02,0-.03-1.27-3.82-3.93-12.98-3.57-21.86,.64-15.66,5.92-25.27,7.32-27.68,3.7-6.57,8.51-12.44,14.21-17.37,5.04-4.25,10.74-7.63,16.89-10,6.64-2.79,13.76-4.28,20.96-4.4v25.96s-13.18-4.36-23.72,3.36c-7.37,5.71-11.29,11.29-12.44,21.24-.05,7.32,1.75,17.69,11.6,24.6,1.15,.76,2.28,1.43,3.38,2.02,1.72,2.33,3.82,4.37,6.2,6.02,9.63,6.36,17.69,6.8,28,2.67,6.88-2.76,12.05-8.98,14.45-15.87,1.51-4.3,1.49-8.64,1.49-13.12V8.05h24c.99,5.88,3.74,14.26,10.99,22.56,2.91,3.13,6.19,5.9,9.77,8.25,1.06,1.14,6.46,6.78,13.39,10.24,3.58,1.79,7.36,3.16,11.26,4.08Z"/>
        <path class="cls-1" d="M15.14,151.98v.02l.59,1.68c-.07-.2-.29-.79-.59-1.7h0Z"/>
        <path class="cls-1" d="M59.55,83.01c-6.15,2.37-11.85,5.75-16.89,10-5.71,4.93-10.52,10.82-14.21,17.4-1.4,2.4-6.68,12.02-7.32,27.68-.36,8.88,2.3,18.04,3.57,21.86,0,0,0,.02,0,.03,.8,2.18,3.92,9.87,9.04,16.4,1.49,1.89,3.08,3.7,4.77,5.41-5.42-3.75-10.26-8.29-14.35-13.46-5.07-6.45-8.2-14.07-9.02-16.32,0-.02,0-.03,0-.05v-.03c-1.27-3.81-3.94-12.98-3.57-21.87,.64-15.66,5.92-25.27,7.32-27.68,3.69-6.58,8.5-12.47,14.21-17.4,5.03-4.25,10.74-7.63,16.89-10,3.83-1.59,7.83-2.76,11.91-3.5,6.16-1.07,12.44-1.17,18.63-.28v7.4c-7.21,.12-14.33,1.61-20.98,4.4Z"/>
        <path class="cls-1" d="M133.5,8.05h-24v127.46c0,4.48,0,8.8-1.49,13.12-2.42,6.89-7.58,13.11-14.45,15.87-10.32,4.14-18.38,3.68-28-2.67-2.39-1.64-4.49-3.67-6.22-6,8.2,4.37,15.53,4.3,24.62,.65,6.87-2.76,12.03-8.98,14.45-15.87,1.51-4.3,1.49-8.64,1.49-13.11V0h33.14s-.37,3.17,.46,8.05Zm45.39,38.04v7.09c-3.89-.93-7.66-2.3-11.24-4.08-6.93-3.46-12.33-9.1-13.39-10.24,1.23,.8,2.5,1.54,3.81,2.19,8.43,4.21,16.73,5.46,20.82,5.04h0Z"/>
      </g>
      <rect class="cls-3" y="0" width="200" height="200"/>
    </g>
  </g>
</svg>